<mxfile host="app.diagrams.net" modified="2023-08-29T07:17:59.264Z" agent="Mozilla/5.0 (Windows NT 10.0; Win64; x64) AppleWebKit/537.36 (KHTML, like Gecko) Chrome/116.0.0.0 Safari/537.36" version="21.3.4" etag="O1IEe-LryM9fQkmkYQFc" type="github">
  <diagram name="第 1 页" id="_Q3wB16PVyoJf5jzaV4e">
    <mxGraphModel>
      <root>
        <mxCell id="0" />
        <mxCell id="1" parent="0" />
      </root>
    </mxGraphModel>
  </diagram>
</mxfile>
